<?xml version="1.0" standalone="no"?>
<!DOCTYPE svg PUBLIC "-//W3C//DTD SVG 20010904//EN"
 "http://www.w3.org/TR/2001/REC-SVG-20010904/DTD/svg10.dtd">
<svg version="1.0" xmlns="http://www.w3.org/2000/svg"
 width="500.000000pt" height="500.000000pt" viewBox="0 0 500.000000 500.000000"
 preserveAspectRatio="xMidYMid meet">

<g transform="translate(0.000000,500.000000) scale(0.100000,-0.100000)"
fill="#000000" stroke="none">
<path d="M2300 3976 c-377 -84 -673 -368 -766 -734 -34 -134 -40 -253 -20
-391 10 -65 13 -117 8 -120 -5 -3 -42 -27 -83 -53 -47 -30 -90 -67 -117 -102
-24 -31 -41 -56 -37 -56 3 0 64 29 135 65 136 68 150 73 150 52 0 -24 81 -171
131 -239 60 -81 161 -176 244 -230 53 -35 59 -42 57 -68 -3 -25 4 -34 47 -65
28 -20 51 -41 51 -46 0 -13 -39 -31 -51 -23 -6 3 -47 10 -92 15 -148 17 -139
19 -164 -27 -13 -23 -24 -59 -26 -79 -2 -35 0 -38 38 -52 60 -23 146 -20 293
10 l132 27 28 -20 c23 -16 33 -18 67 -10 22 5 70 10 107 10 l66 0 33 70 c39
86 59 107 50 53 -11 -67 -5 -79 65 -117 75 -42 86 -43 151 -15 26 11 80 29
118 38 l70 18 -2 39 c-2 21 -16 66 -33 99 l-31 60 30 -35 c17 -19 49 -72 70
-116 22 -45 45 -84 53 -86 20 -8 108 21 115 37 6 17 -24 148 -42 185 -7 14
-31 39 -54 55 -22 17 -41 32 -41 35 0 3 18 18 40 33 105 74 204 184 275 306
41 69 32 69 133 5 28 -19 52 -31 52 -28 0 3 -27 39 -60 80 l-61 74 25 78 c69
219 53 481 -43 695 -130 289 -400 506 -714 572 -83 18 -318 18 -397 1z m18
-1961 c18 -4 32 -11 30 -17 -4 -11 -6 -11 -52 -2 -19 3 -37 13 -40 21 -4 10
-1 13 12 9 9 -2 32 -8 50 -11z"/>
<path d="M627 1673 c-4 -3 -7 -19 -7 -35 0 -23 4 -28 25 -28 l24 0 3 -137 3
-138 30 0 30 0 3 138 3 137 24 0 c22 0 25 4 25 35 l0 35 -78 0 c-43 0 -82 -3
-85 -7z"/>
<path d="M852 1508 l3 -173 30 0 c30 0 30 1 33 58 3 52 5 57 25 57 35 0 47
-19 47 -73 l0 -48 33 3 32 3 -4 60 c-1 33 -7 67 -11 75 -5 9 -3 26 6 40 31 56
6 132 -51 156 -19 8 -59 14 -90 14 l-55 0 2 -172z m128 88 c18 -22 8 -59 -19
-73 -34 -16 -41 -9 -41 43 0 40 2 44 24 44 13 0 29 -7 36 -14z"/>
<path d="M1110 1505 l0 -176 28 3 27 3 0 170 0 170 -27 3 -28 3 0 -176z"/>
<path d="M1230 1506 l0 -176 66 0 c70 0 99 10 126 44 20 25 23 78 6 109 -7 12
-12 48 -13 79 0 49 -4 62 -27 85 -23 23 -38 28 -93 31 l-65 4 0 -176z m104
101 c28 -20 18 -61 -16 -65 -26 -3 -28 -1 -28 31 0 48 12 57 44 34z m37 -153
c20 -24 -1 -48 -45 -52 -35 -3 -36 -2 -36 32 0 34 2 36 34 36 18 0 39 -7 47
-16z"/>
<path d="M1575 1666 c-86 -39 -128 -143 -91 -229 24 -57 93 -107 147 -107 14
0 19 7 19 30 0 26 -6 32 -40 46 -35 14 -60 38 -60 58 0 3 20 6 45 6 45 0 45 0
45 35 0 35 0 35 -45 35 -25 0 -45 3 -45 8 0 20 33 52 66 62 30 10 35 16 32 38
-4 32 -29 38 -73 18z"/>
<path d="M1725 1658 c-15 -14 -28 -38 -32 -60 -5 -33 0 -47 37 -103 41 -63 42
-66 25 -85 -10 -11 -26 -20 -37 -20 -13 0 -18 -8 -18 -30 0 -28 3 -30 36 -30
26 0 43 8 65 29 42 42 40 92 -6 157 -40 56 -45 93 -15 101 14 4 20 14 20 34 0
24 -4 29 -24 29 -14 0 -37 -10 -51 -22z"/>
<path d="M2075 1658 c-116 -68 -112 -249 8 -307 157 -76 316 84 237 239 -29
57 -73 84 -145 88 -48 2 -68 -2 -100 -20z m167 -76 c38 -38 45 -87 18 -130
-29 -47 -78 -66 -126 -49 -99 33 -105 166 -9 208 34 15 87 2 117 -29z"/>
<path d="M2389 1678 c-5 -14 -3 -332 2 -339 3 -6 17 -9 29 -7 21 3 23 8 24 63
l1 60 43 3 c39 3 42 5 42 32 0 27 -3 29 -42 32 l-43 3 0 45 0 45 43 3 c39 3
42 5 42 33 l0 29 -70 0 c-38 0 -70 -1 -71 -2z"/>
<path d="M2785 1654 c-38 -41 -34 -94 11 -160 42 -61 41 -85 -4 -99 -27 -8
-32 -14 -30 -35 5 -39 56 -40 99 -2 48 43 46 90 -4 163 -20 30 -37 59 -37 66
0 6 11 20 25 30 18 13 23 24 19 41 -9 31 -49 29 -79 -4z"/>
<path d="M3041 1663 c-66 -34 -76 -59 -79 -204 l-4 -129 31 0 c27 0 30 3 33
38 3 34 6 37 36 40 31 3 32 2 32 -37 0 -40 1 -41 35 -41 l35 0 -2 173 -3 172
-40 3 c-24 1 -54 -5 -74 -15z m49 -124 l0 -70 -32 3 c-33 3 -33 4 -31 51 1 49
23 87 50 87 10 0 13 -18 13 -71z"/>
<path d="M3228 1649 c-3 -19 -4 -97 -3 -174 l3 -140 31 -3 31 -3 0 136 c0 129
1 135 19 126 33 -18 54 -80 59 -173 l4 -88 34 0 34 0 0 175 0 175 -35 0 c-31
0 -35 -3 -35 -25 l0 -26 -27 20 c-16 11 -47 23 -69 27 -41 6 -41 6 -46 -27z"/>
<path d="M3519 1651 c-41 -41 -39 -84 6 -152 43 -63 42 -90 -3 -104 -27 -8
-32 -14 -30 -35 6 -48 96 -33 123 21 26 50 20 77 -38 158 -24 33 -27 43 -17
60 6 12 17 21 25 21 10 0 15 10 15 30 0 26 -4 30 -26 30 -15 0 -38 -12 -55
-29z"/>
<path d="M3751 1663 c-66 -34 -76 -59 -80 -204 l-3 -129 36 0 c35 0 36 1 36
40 0 38 2 40 29 40 27 0 30 -3 33 -37 3 -35 6 -38 36 -41 l32 -3 -2 173 -3
173 -40 3 c-24 1 -54 -5 -74 -15z m49 -123 l0 -70 -30 0 c-29 0 -30 1 -30 48
0 50 21 92 46 92 11 0 14 -16 14 -70z"/>
<path d="M3932 1508 l3 -173 30 0 c30 0 30 1 33 58 3 52 5 57 25 57 35 0 47
-19 47 -72 0 -47 1 -48 30 -48 l30 0 0 63 c0 34 -4 68 -9 76 -6 10 -4 25 5 42
30 59 6 131 -51 155 -19 8 -59 14 -90 14 l-55 0 2 -172z m126 90 c29 -29 7
-78 -35 -78 -21 0 -23 5 -23 45 0 40 2 45 23 45 13 0 28 -5 35 -12z"/>
<path d="M4261 1662 c-58 -31 -71 -69 -71 -209 l0 -123 29 0 c27 0 30 3 33 38
3 34 6 37 33 37 27 0 30 -3 33 -37 3 -35 6 -38 33 -38 l29 0 0 175 0 175 -43
0 c-23 0 -58 -8 -76 -18z m59 -122 l0 -70 -35 0 c-34 0 -35 1 -35 41 0 57 24
98 58 99 8 0 12 -21 12 -70z"/>
<path d="M2460 1202 c0 -46 4 -62 14 -62 7 0 17 10 20 23 l7 22 11 -25 11 -25
5 23 c4 25 -13 53 -31 49 -6 -1 -13 7 -15 18 -10 48 -22 35 -22 -23z"/>
<path d="M1755 1217 c-4 -19 -5 -47 -3 -63 3 -25 7 -29 32 -29 16 0 31 6 34
13 3 9 -3 13 -19 10 -16 -2 -24 2 -24 12 0 8 10 16 23 18 12 2 22 8 22 13 0 6
-10 9 -22 7 -15 -2 -23 2 -23 12 0 9 11 16 28 18 39 5 33 22 -8 22 -31 0 -35
-3 -40 -33z"/>
<path d="M2028 1244 c-11 -10 -10 -102 1 -108 5 -3 10 2 13 12 5 26 -6 105
-14 96z"/>
<path d="M2787 1243 c-4 -3 -7 -22 -7 -42 l-1 -36 -32 38 c-18 20 -38 37 -44
37 -16 0 -18 -87 -3 -110 7 -11 10 -3 10 30 l0 45 33 -39 c46 -55 67 -46 67
29 0 51 -7 65 -23 48z"/>
<path d="M2387 1218 c-16 -43 21 -104 47 -78 7 7 5 10 -7 10 -19 0 -23 26 -6
32 8 3 8 10 -2 26 -16 25 -25 28 -32 10z"/>
<path d="M2937 1218 c-8 -23 5 -77 20 -82 24 -10 36 5 16 20 -14 11 -15 15 -5
22 12 8 12 13 1 31 -16 24 -25 27 -32 9z"/>
<path d="M2155 1208 c-9 -23 -2 -71 11 -75 7 -2 14 8 18 22 4 14 13 25 21 25
8 0 15 5 15 10 0 10 -5 12 -32 14 -7 1 -16 5 -20 11 -4 5 -10 2 -13 -7z"/>
<path d="M2257 1209 c-37 -21 -9 -90 30 -74 17 7 16 8 -2 15 -19 7 -19 7 3 14
12 4 22 14 22 21 0 21 -32 35 -53 24z m28 -19 c3 -5 1 -10 -4 -10 -6 0 -11 5
-11 10 0 6 2 10 4 10 3 0 8 -4 11 -10z"/>
<path d="M3100 1176 c0 -49 16 -62 26 -21 3 14 12 25 20 25 16 0 19 19 4 21
-20 3 -25 4 -37 12 -10 6 -13 -3 -13 -37z"/>
<path d="M3196 1204 c-31 -31 -7 -84 31 -70 15 6 15 8 3 16 -12 8 -12 10 3 16
23 8 22 31 -2 44 -15 7 -23 6 -35 -6z m34 -14 c0 -5 -4 -10 -10 -10 -5 0 -10
5 -10 10 0 6 5 10 10 10 6 0 10 -4 10 -10z"/>
<path d="M2560 1191 c-13 -25 -4 -48 22 -57 24 -7 38 4 18 16 -12 8 -12 10 3
16 9 3 17 15 17 25 0 26 -46 26 -60 0z m40 -1 c0 -5 -5 -10 -11 -10 -5 0 -7 5
-4 10 3 6 8 10 11 10 2 0 4 -4 4 -10z"/>
<path d="M2846 1194 c-9 -8 -16 -24 -16 -35 0 -16 7 -19 40 -19 43 0 46 4 30
44 -11 30 -31 33 -54 10z m28 -19 c-6 -16 -24 -21 -24 -7 0 11 11 22 21 22 5
0 6 -7 3 -15z"/>
<path d="M3048 1183 c-11 -27 -12 -27 -15 -5 -6 32 -23 27 -23 -7 0 -36 10
-44 45 -35 19 5 25 12 25 34 0 40 -18 47 -32 13z"/>
<path d="M1855 1182 c3 -8 0 -22 -7 -30 -11 -13 -10 -15 6 -9 10 4 25 2 33 -4
17 -15 31 -3 15 13 -7 7 -8 17 -2 28 7 14 4 17 -21 17 -22 0 -28 -4 -24 -15z"/>
<path d="M1936 1185 c-10 -26 -7 -105 4 -105 6 0 10 9 10 20 0 13 10 24 26 30
20 8 25 16 22 38 -2 21 -9 28 -29 30 -17 2 -29 -3 -33 -13z m44 -20 c0 -8 -4
-15 -9 -15 -13 0 -22 16 -14 24 11 11 23 6 23 -9z"/>
<path d="M2072 1188 c-21 -21 -14 -47 15 -54 29 -8 56 17 51 46 -4 19 -49 25
-66 8z m38 -16 c0 -13 -12 -22 -22 -16 -10 6 -1 24 13 24 5 0 9 -4 9 -8z"/>
</g>
</svg>
